<mxfile host="65bd71144e">
    <diagram id="brdB2OR7QsWly0mrbdON" name="多途到达和掠射角">
        <mxGraphModel dx="881" dy="766" grid="1" gridSize="10" guides="1" tooltips="1" connect="1" arrows="1" fold="1" page="1" pageScale="1" pageWidth="827" pageHeight="1169" math="0" shadow="0">
            <root>
                <mxCell id="0"/>
                <mxCell id="1" parent="0"/>
                <mxCell id="2" value="" style="verticalLabelPosition=bottom;html=1;verticalAlign=top;align=center;shape=mxgraph.floorplan.floor_lamp;rounded=1;shadow=0;glass=0;labelBackgroundColor=none;labelBorderColor=none;sketch=0;fontSize=20;fontColor=#FF3333;fillColor=default;" parent="1" vertex="1">
                    <mxGeometry x="520" y="250" width="75" height="70" as="geometry"/>
                </mxCell>
                <mxCell id="3" value="" style="shape=mxgraph.signs.transportation.ship_1;html=1;pointerEvents=1;fillColor=#000000;strokeColor=none;verticalLabelPosition=bottom;verticalAlign=top;align=center;rounded=1;shadow=0;glass=0;labelBackgroundColor=none;labelBorderColor=none;sketch=0;fontSize=20;fontColor=#FF3333;" parent="1" vertex="1">
                    <mxGeometry x="320" y="400" width="110" height="74" as="geometry"/>
                </mxCell>
                <mxCell id="6" value="" style="endArrow=classic;html=1;strokeWidth=3;" parent="1" edge="1">
                    <mxGeometry width="50" height="50" relative="1" as="geometry">
                        <mxPoint x="440" y="280" as="sourcePoint"/>
                        <mxPoint x="700" y="280" as="targetPoint"/>
                    </mxGeometry>
                </mxCell>
                <mxCell id="7" value="" style="endArrow=classic;html=1;strokeWidth=3;" parent="1" edge="1">
                    <mxGeometry width="50" height="50" relative="1" as="geometry">
                        <mxPoint x="560" y="400" as="sourcePoint"/>
                        <mxPoint x="560" y="160" as="targetPoint"/>
                    </mxGeometry>
                </mxCell>
                <mxCell id="8" value="" style="endArrow=none;dashed=1;html=1;dashPattern=1 3;strokeWidth=2;exitX=0.62;exitY=0.556;exitDx=0;exitDy=0;exitPerimeter=0;" parent="1" source="3" edge="1">
                    <mxGeometry width="50" height="50" relative="1" as="geometry">
                        <mxPoint x="510" y="330" as="sourcePoint"/>
                        <mxPoint x="560" y="280" as="targetPoint"/>
                    </mxGeometry>
                </mxCell>
                <mxCell id="12" value="&lt;b&gt;&lt;font style=&quot;font-size: 15px;&quot;&gt;X&lt;/font&gt;&lt;/b&gt;" style="text;html=1;align=center;verticalAlign=middle;resizable=0;points=[];autosize=1;strokeColor=none;fillColor=none;" parent="1" vertex="1">
                    <mxGeometry x="700" y="270" width="30" height="30" as="geometry"/>
                </mxCell>
                <mxCell id="13" value="&lt;b&gt;&lt;font style=&quot;font-size: 15px;&quot;&gt;Y&lt;/font&gt;&lt;/b&gt;" style="text;html=1;align=center;verticalAlign=middle;resizable=0;points=[];autosize=1;strokeColor=none;fillColor=none;" parent="1" vertex="1">
                    <mxGeometry x="565" y="150" width="30" height="30" as="geometry"/>
                </mxCell>
                <mxCell id="18" value="" style="verticalLabelPosition=bottom;html=1;verticalAlign=top;align=center;shape=mxgraph.floorplan.floor_lamp;rounded=1;shadow=0;glass=0;labelBackgroundColor=none;labelBorderColor=none;sketch=0;fontSize=20;fontColor=#FF3333;fillColor=default;" parent="1" vertex="1">
                    <mxGeometry x="560" y="490" width="75" height="70" as="geometry"/>
                </mxCell>
                <mxCell id="19" value="" style="endArrow=classic;html=1;strokeWidth=3;" parent="1" edge="1">
                    <mxGeometry width="50" height="50" relative="1" as="geometry">
                        <mxPoint x="480" y="520" as="sourcePoint"/>
                        <mxPoint x="740" y="520" as="targetPoint"/>
                    </mxGeometry>
                </mxCell>
                <mxCell id="20" value="" style="endArrow=classic;html=1;strokeWidth=3;" parent="1" edge="1">
                    <mxGeometry width="50" height="50" relative="1" as="geometry">
                        <mxPoint x="600" y="640" as="sourcePoint"/>
                        <mxPoint x="600" y="400" as="targetPoint"/>
                    </mxGeometry>
                </mxCell>
                <mxCell id="21" value="&lt;b&gt;&lt;font style=&quot;font-size: 15px;&quot;&gt;X&lt;/font&gt;&lt;/b&gt;" style="text;html=1;align=center;verticalAlign=middle;resizable=0;points=[];autosize=1;strokeColor=none;fillColor=none;" parent="1" vertex="1">
                    <mxGeometry x="740" y="510" width="30" height="30" as="geometry"/>
                </mxCell>
                <mxCell id="22" value="&lt;b&gt;&lt;font style=&quot;font-size: 15px;&quot;&gt;Y&lt;/font&gt;&lt;/b&gt;" style="text;html=1;align=center;verticalAlign=middle;resizable=0;points=[];autosize=1;strokeColor=none;fillColor=none;" parent="1" vertex="1">
                    <mxGeometry x="605" y="390" width="30" height="30" as="geometry"/>
                </mxCell>
                <mxCell id="23" value="" style="verticalLabelPosition=bottom;html=1;verticalAlign=top;align=center;shape=mxgraph.floorplan.floor_lamp;rounded=1;shadow=0;glass=0;labelBackgroundColor=none;labelBorderColor=none;sketch=0;fontSize=20;fontColor=#FF3333;fillColor=default;" parent="1" vertex="1">
                    <mxGeometry x="190" y="550" width="75" height="70" as="geometry"/>
                </mxCell>
                <mxCell id="24" value="" style="endArrow=classic;html=1;strokeWidth=3;" parent="1" edge="1">
                    <mxGeometry width="50" height="50" relative="1" as="geometry">
                        <mxPoint x="110" y="580" as="sourcePoint"/>
                        <mxPoint x="370" y="580" as="targetPoint"/>
                    </mxGeometry>
                </mxCell>
                <mxCell id="25" value="" style="endArrow=classic;html=1;strokeWidth=3;" parent="1" edge="1">
                    <mxGeometry width="50" height="50" relative="1" as="geometry">
                        <mxPoint x="230" y="700" as="sourcePoint"/>
                        <mxPoint x="230" y="460" as="targetPoint"/>
                    </mxGeometry>
                </mxCell>
                <mxCell id="26" value="&lt;b&gt;&lt;font style=&quot;font-size: 15px;&quot;&gt;X&lt;/font&gt;&lt;/b&gt;" style="text;html=1;align=center;verticalAlign=middle;resizable=0;points=[];autosize=1;strokeColor=none;fillColor=none;" parent="1" vertex="1">
                    <mxGeometry x="370" y="570" width="30" height="30" as="geometry"/>
                </mxCell>
                <mxCell id="27" value="&lt;b&gt;&lt;font style=&quot;font-size: 15px;&quot;&gt;Y&lt;/font&gt;&lt;/b&gt;" style="text;html=1;align=center;verticalAlign=middle;resizable=0;points=[];autosize=1;strokeColor=none;fillColor=none;" parent="1" vertex="1">
                    <mxGeometry x="235" y="450" width="30" height="30" as="geometry"/>
                </mxCell>
                <mxCell id="28" value="" style="endArrow=none;dashed=1;html=1;dashPattern=1 3;strokeWidth=2;fontSize=15;" parent="1" target="3" edge="1">
                    <mxGeometry width="50" height="50" relative="1" as="geometry">
                        <mxPoint x="230" y="580" as="sourcePoint"/>
                        <mxPoint x="280" y="530" as="targetPoint"/>
                    </mxGeometry>
                </mxCell>
                <mxCell id="29" value="" style="endArrow=none;dashed=1;html=1;dashPattern=1 3;strokeWidth=2;fontSize=15;" parent="1" edge="1">
                    <mxGeometry width="50" height="50" relative="1" as="geometry">
                        <mxPoint x="600" y="520" as="sourcePoint"/>
                        <mxPoint x="440" y="460" as="targetPoint"/>
                    </mxGeometry>
                </mxCell>
                <mxCell id="30" value="声呐1" style="text;html=1;align=center;verticalAlign=middle;resizable=0;points=[];autosize=1;strokeColor=none;fillColor=none;fontSize=15;" parent="1" vertex="1">
                    <mxGeometry x="575" y="240" width="60" height="30" as="geometry"/>
                </mxCell>
                <mxCell id="31" value="声呐2" style="text;html=1;align=center;verticalAlign=middle;resizable=0;points=[];autosize=1;strokeColor=none;fillColor=none;fontSize=15;" parent="1" vertex="1">
                    <mxGeometry x="160" y="540" width="60" height="30" as="geometry"/>
                </mxCell>
                <mxCell id="32" value="声呐3" style="text;html=1;align=center;verticalAlign=middle;resizable=0;points=[];autosize=1;strokeColor=none;fillColor=none;fontSize=15;" parent="1" vertex="1">
                    <mxGeometry x="610" y="474" width="60" height="30" as="geometry"/>
                </mxCell>
            </root>
        </mxGraphModel>
    </diagram>
    <diagram id="NbCo3Z2NdBKXoTFbprWD" name="矩阵表达">
        <mxGraphModel dx="881" dy="766" grid="1" gridSize="10" guides="1" tooltips="1" connect="1" arrows="1" fold="1" page="1" pageScale="1" pageWidth="850" pageHeight="1100" math="0" shadow="0">
            <root>
                <mxCell id="0"/>
                <mxCell id="1" parent="0"/>
                <mxCell id="u54kGicLDinltK0I-Z2_-1" value="" style="shape=table;html=1;whiteSpace=wrap;startSize=0;container=1;collapsible=0;childLayout=tableLayout;columnLines=0;rowLines=0;" vertex="1" parent="1">
                    <mxGeometry x="220" y="180" width="250" height="40" as="geometry"/>
                </mxCell>
                <mxCell id="u54kGicLDinltK0I-Z2_-2" value="" style="shape=tableRow;horizontal=0;startSize=0;swimlaneHead=0;swimlaneBody=0;top=0;left=0;bottom=0;right=0;collapsible=0;dropTarget=0;fillColor=none;points=[[0,0.5],[1,0.5]];portConstraint=eastwest;" vertex="1" parent="u54kGicLDinltK0I-Z2_-1">
                    <mxGeometry width="250" height="40" as="geometry"/>
                </mxCell>
                <mxCell id="u54kGicLDinltK0I-Z2_-3" value="&lt;font style=&quot;font-size: 15px;&quot;&gt;Angle 1&lt;/font&gt;" style="shape=partialRectangle;html=1;whiteSpace=wrap;connectable=0;fillColor=#fff2cc;top=0;left=0;bottom=0;right=0;overflow=hidden;fontSize=12;strokeColor=#d6b656;" vertex="1" parent="u54kGicLDinltK0I-Z2_-2">
                    <mxGeometry width="84" height="40" as="geometry">
                        <mxRectangle width="84" height="40" as="alternateBounds"/>
                    </mxGeometry>
                </mxCell>
                <mxCell id="u54kGicLDinltK0I-Z2_-4" value="&lt;span style=&quot;font-size: 15px;&quot;&gt;Angle 2&lt;/span&gt;" style="shape=partialRectangle;html=1;whiteSpace=wrap;connectable=0;fillColor=#dae8fc;top=0;left=0;bottom=0;right=0;overflow=hidden;fontSize=12;strokeColor=#6c8ebf;" vertex="1" parent="u54kGicLDinltK0I-Z2_-2">
                    <mxGeometry x="84" width="82" height="40" as="geometry">
                        <mxRectangle width="82" height="40" as="alternateBounds"/>
                    </mxGeometry>
                </mxCell>
                <mxCell id="u54kGicLDinltK0I-Z2_-5" value="&lt;span style=&quot;font-size: 15px;&quot;&gt;Angle 3&lt;/span&gt;" style="shape=partialRectangle;html=1;whiteSpace=wrap;connectable=0;fillColor=#d5e8d4;top=0;left=0;bottom=0;right=0;overflow=hidden;fontSize=12;strokeColor=#82b366;" vertex="1" parent="u54kGicLDinltK0I-Z2_-2">
                    <mxGeometry x="166" width="84" height="40" as="geometry">
                        <mxRectangle width="84" height="40" as="alternateBounds"/>
                    </mxGeometry>
                </mxCell>
                <mxCell id="u54kGicLDinltK0I-Z2_-6" value="" style="shape=table;html=1;whiteSpace=wrap;startSize=0;container=1;collapsible=0;childLayout=tableLayout;columnLines=0;rowLines=0;" vertex="1" parent="1">
                    <mxGeometry x="220" y="220" width="250" height="140" as="geometry"/>
                </mxCell>
                <mxCell id="u54kGicLDinltK0I-Z2_-7" value="" style="shape=tableRow;horizontal=0;startSize=0;swimlaneHead=0;swimlaneBody=0;top=0;left=0;bottom=0;right=0;collapsible=0;dropTarget=0;fillColor=none;points=[[0,0.5],[1,0.5]];portConstraint=eastwest;" vertex="1" parent="u54kGicLDinltK0I-Z2_-6">
                    <mxGeometry width="250" height="140" as="geometry"/>
                </mxCell>
                <mxCell id="u54kGicLDinltK0I-Z2_-8" value="&lt;font style=&quot;font-size: 15px;&quot;&gt;Path 1&lt;/font&gt;" style="shape=partialRectangle;html=1;whiteSpace=wrap;connectable=0;fillColor=#fff2cc;top=0;left=0;bottom=0;right=0;overflow=hidden;fontSize=12;strokeColor=#d6b656;" vertex="1" parent="u54kGicLDinltK0I-Z2_-7">
                    <mxGeometry width="84" height="140" as="geometry">
                        <mxRectangle width="84" height="140" as="alternateBounds"/>
                    </mxGeometry>
                </mxCell>
                <mxCell id="u54kGicLDinltK0I-Z2_-9" value="&lt;span style=&quot;font-size: 15px;&quot;&gt;Path 2&lt;/span&gt;" style="shape=partialRectangle;html=1;whiteSpace=wrap;connectable=0;fillColor=#dae8fc;top=0;left=0;bottom=0;right=0;overflow=hidden;fontSize=12;strokeColor=#6c8ebf;" vertex="1" parent="u54kGicLDinltK0I-Z2_-7">
                    <mxGeometry x="84" width="82" height="140" as="geometry">
                        <mxRectangle width="82" height="140" as="alternateBounds"/>
                    </mxGeometry>
                </mxCell>
                <mxCell id="u54kGicLDinltK0I-Z2_-10" value="&lt;span style=&quot;font-size: 15px;&quot;&gt;Path 3&lt;/span&gt;" style="shape=partialRectangle;html=1;whiteSpace=wrap;connectable=0;fillColor=#d5e8d4;top=0;left=0;bottom=0;right=0;overflow=hidden;fontSize=12;strokeColor=#82b366;" vertex="1" parent="u54kGicLDinltK0I-Z2_-7">
                    <mxGeometry x="166" width="84" height="140" as="geometry">
                        <mxRectangle width="84" height="140" as="alternateBounds"/>
                    </mxGeometry>
                </mxCell>
                <mxCell id="u54kGicLDinltK0I-Z2_-11" value="" style="endArrow=none;html=1;fontSize=15;exitX=0.319;exitY=1.002;exitDx=0;exitDy=0;exitPerimeter=0;strokeWidth=1;" edge="1" source="u54kGicLDinltK0I-Z2_-7" parent="1">
                    <mxGeometry width="50" height="50" relative="1" as="geometry">
                        <mxPoint x="300" y="280" as="sourcePoint"/>
                        <mxPoint x="300" y="180" as="targetPoint"/>
                    </mxGeometry>
                </mxCell>
                <mxCell id="u54kGicLDinltK0I-Z2_-12" value="" style="endArrow=none;html=1;fontSize=15;exitX=0.319;exitY=1.002;exitDx=0;exitDy=0;exitPerimeter=0;strokeWidth=1;" edge="1" parent="1">
                    <mxGeometry width="50" height="50" relative="1" as="geometry">
                        <mxPoint x="380" y="360" as="sourcePoint"/>
                        <mxPoint x="380.25" y="179.72000000000003" as="targetPoint"/>
                    </mxGeometry>
                </mxCell>
                <mxCell id="u54kGicLDinltK0I-Z2_-13" value="&lt;b&gt;X&lt;sub&gt;1&lt;/sub&gt;&lt;/b&gt;" style="text;html=1;align=center;verticalAlign=middle;resizable=0;points=[];autosize=1;strokeColor=none;fillColor=none;fontSize=15;" vertex="1" parent="1">
                    <mxGeometry x="240" y="150" width="40" height="30" as="geometry"/>
                </mxCell>
                <mxCell id="u54kGicLDinltK0I-Z2_-14" value="&lt;b&gt;X&lt;sub&gt;2&lt;/sub&gt;&lt;/b&gt;" style="text;html=1;align=center;verticalAlign=middle;resizable=0;points=[];autosize=1;strokeColor=none;fillColor=none;fontSize=15;" vertex="1" parent="1">
                    <mxGeometry x="320" y="150" width="40" height="30" as="geometry"/>
                </mxCell>
                <mxCell id="u54kGicLDinltK0I-Z2_-15" value="&lt;b&gt;X&lt;sub&gt;3&lt;/sub&gt;&lt;/b&gt;" style="text;html=1;align=center;verticalAlign=middle;resizable=0;points=[];autosize=1;strokeColor=none;fillColor=none;fontSize=15;" vertex="1" parent="1">
                    <mxGeometry x="405" y="150" width="40" height="30" as="geometry"/>
                </mxCell>
            </root>
        </mxGraphModel>
    </diagram>
</mxfile>